# xmcd
#
# Track frame offsets:
#  150
#  15065
#  31931
#  50782
#  66465
#  82726
#  102884
#  120367
#  134287
#  147476
#
# Disc length: 2282 seconds
#
# Revision: 0
# Processed by: cddbd v1.5.1PL2 Copyright (c) Steve Scherf et al.
# Submitted via: Collectorz.com_Music_Collector 6.9
#
DISCID=7c08e80a
DTITLE=Gretchen Wilson - Here For The Party
DYEAR=2004
DGENRE=Country
TTITLE0=Here For The Party
TTITLE1=Redneck Woman
TTITLE2=When I Think About Cheatin'
TTITLE3=Homewrecker
TTITLE4=Holding You
TTITLE5=Chariot
TTITLE6=What Happened
TTITLE7=When It Rains
TTITLE8=The Bed
TTITLE9=Pocahontas Proud
EXTD=
EXTT0=
EXTT1=
EXTT2=
EXTT3=
EXTT4=
EXTT5=
EXTT6=
EXTT7=
EXTT8=
EXTT9=
PLAYORDER=
